<mxfile host="Electron" modified="2023-04-03T19:20:40.128Z" agent="Mozilla/5.0 (Macintosh; Intel Mac OS X 10_15_7) AppleWebKit/537.36 (KHTML, like Gecko) draw.io/21.1.2 Chrome/106.0.5249.199 Electron/21.4.3 Safari/537.36" version="21.1.2" etag="vs-ujeZx3GS1-9GfuItT" type="device">
  <diagram id="C5RBs43oDa-KdzZeNtuy" name="Page-1">
    <mxGraphModel dx="5757" dy="1811" grid="1" gridSize="10" guides="1" tooltips="1" connect="1" arrows="1" fold="1" page="1" pageScale="1" pageWidth="827" pageHeight="1169" math="0" shadow="0">
      <root>
        <mxCell id="WIyWlLk6GJQsqaUBKTNV-0" />
        <mxCell id="WIyWlLk6GJQsqaUBKTNV-1" parent="WIyWlLk6GJQsqaUBKTNV-0" />
        <mxCell id="Zg4xSdY9HF_8HJ5zWb1G-50" value="Name" style="swimlane;fontStyle=1;align=center;verticalAlign=top;childLayout=stackLayout;horizontal=1;startSize=26;horizontalStack=0;resizeParent=1;resizeParentMax=0;resizeLast=0;collapsible=1;marginBottom=0;whiteSpace=wrap;html=1;" parent="WIyWlLk6GJQsqaUBKTNV-1" vertex="1">
          <mxGeometry x="453" y="160" width="187" height="52" as="geometry" />
        </mxCell>
        <mxCell id="Zg4xSdY9HF_8HJ5zWb1G-60" value="HomeAddress" style="swimlane;fontStyle=1;align=center;verticalAlign=top;childLayout=stackLayout;horizontal=1;startSize=26;horizontalStack=0;resizeParent=1;resizeParentMax=0;resizeLast=0;collapsible=1;marginBottom=0;whiteSpace=wrap;html=1;" parent="WIyWlLk6GJQsqaUBKTNV-1" vertex="1">
          <mxGeometry x="453" y="400" width="187" height="52" as="geometry" />
        </mxCell>
        <mxCell id="Zg4xSdY9HF_8HJ5zWb1G-78" value="" style="endArrow=block;endSize=16;endFill=0;html=1;rounded=0;exitX=1;exitY=0.25;exitDx=0;exitDy=0;entryX=0;entryY=0.25;entryDx=0;entryDy=0;" parent="WIyWlLk6GJQsqaUBKTNV-1" source="Zg4xSdY9HF_8HJ5zWb1G-50" target="F4SfmG8yWQRCbflpEff_-26" edge="1">
          <mxGeometry x="0.75" y="-40" width="160" relative="1" as="geometry">
            <mxPoint x="592" y="138" as="sourcePoint" />
            <mxPoint x="671.52" y="83.25000000000011" as="targetPoint" />
            <Array as="points">
              <mxPoint x="750" y="173" />
              <mxPoint x="750" y="320" />
            </Array>
            <mxPoint as="offset" />
          </mxGeometry>
        </mxCell>
        <mxCell id="Zg4xSdY9HF_8HJ5zWb1G-79" value="" style="endArrow=none;endSize=16;endFill=0;html=1;rounded=0;" parent="WIyWlLk6GJQsqaUBKTNV-1" edge="1">
          <mxGeometry x="0.75" y="-40" width="160" relative="1" as="geometry">
            <mxPoint x="640" y="250" as="sourcePoint" />
            <mxPoint x="750" y="190" as="targetPoint" />
            <Array as="points">
              <mxPoint x="750" y="250" />
            </Array>
            <mxPoint as="offset" />
          </mxGeometry>
        </mxCell>
        <mxCell id="Zg4xSdY9HF_8HJ5zWb1G-80" value="" style="endArrow=none;endSize=16;endFill=0;html=1;rounded=0;exitX=1;exitY=0.25;exitDx=0;exitDy=0;" parent="WIyWlLk6GJQsqaUBKTNV-1" source="F4SfmG8yWQRCbflpEff_-31" edge="1">
          <mxGeometry x="0.75" y="-40" width="160" relative="1" as="geometry">
            <mxPoint x="640.0000000000002" y="355.63599999999997" as="sourcePoint" />
            <mxPoint x="750" y="250" as="targetPoint" />
            <Array as="points">
              <mxPoint x="750" y="343" />
            </Array>
            <mxPoint as="offset" />
          </mxGeometry>
        </mxCell>
        <mxCell id="Zg4xSdY9HF_8HJ5zWb1G-81" value="" style="endArrow=none;endSize=16;endFill=0;html=1;rounded=0;exitX=1;exitY=0.25;exitDx=0;exitDy=0;entryX=0.497;entryY=1.125;entryDx=0;entryDy=0;entryPerimeter=0;" parent="WIyWlLk6GJQsqaUBKTNV-1" source="Zg4xSdY9HF_8HJ5zWb1G-60" edge="1">
          <mxGeometry x="0.75" y="-40" width="160" relative="1" as="geometry">
            <mxPoint x="640" y="396" as="sourcePoint" />
            <mxPoint x="750" y="320" as="targetPoint" />
            <Array as="points">
              <mxPoint x="750" y="413" />
            </Array>
            <mxPoint as="offset" />
          </mxGeometry>
        </mxCell>
        <mxCell id="Zg4xSdY9HF_8HJ5zWb1G-82" value="" style="endArrow=none;endSize=16;endFill=0;html=1;rounded=0;exitX=0.998;exitY=0.152;exitDx=0;exitDy=0;exitPerimeter=0;" parent="WIyWlLk6GJQsqaUBKTNV-1" source="F4SfmG8yWQRCbflpEff_-43" edge="1">
          <mxGeometry x="0.75" y="-40" width="160" relative="1" as="geometry">
            <mxPoint x="640" y="481" as="sourcePoint" />
            <mxPoint x="750" y="370" as="targetPoint" />
            <Array as="points">
              <mxPoint x="750" y="487" />
              <mxPoint x="750" y="466" />
            </Array>
            <mxPoint as="offset" />
          </mxGeometry>
        </mxCell>
        <mxCell id="Zg4xSdY9HF_8HJ5zWb1G-83" value="" style="endArrow=diamondThin;endFill=0;endSize=24;html=1;rounded=0;" parent="WIyWlLk6GJQsqaUBKTNV-1" edge="1">
          <mxGeometry width="160" relative="1" as="geometry">
            <mxPoint x="390" y="291" as="sourcePoint" />
            <mxPoint x="260" y="290" as="targetPoint" />
          </mxGeometry>
        </mxCell>
        <mxCell id="Zg4xSdY9HF_8HJ5zWb1G-85" value="" style="endArrow=none;endFill=0;endSize=24;html=1;rounded=0;exitX=0;exitY=0.25;exitDx=0;exitDy=0;verticalAlign=top;" parent="WIyWlLk6GJQsqaUBKTNV-1" source="Zg4xSdY9HF_8HJ5zWb1G-50" edge="1">
          <mxGeometry x="-0.8131" y="-26" width="160" relative="1" as="geometry">
            <mxPoint x="444" y="180" as="sourcePoint" />
            <mxPoint x="390" y="330" as="targetPoint" />
            <Array as="points">
              <mxPoint x="390" y="173" />
            </Array>
            <mxPoint as="offset" />
          </mxGeometry>
        </mxCell>
        <mxCell id="Zg4xSdY9HF_8HJ5zWb1G-86" value="" style="endArrow=none;endFill=0;endSize=24;html=1;rounded=0;" parent="WIyWlLk6GJQsqaUBKTNV-1" edge="1">
          <mxGeometry width="160" relative="1" as="geometry">
            <mxPoint x="450" y="250" as="sourcePoint" />
            <mxPoint x="390" y="403" as="targetPoint" />
            <Array as="points">
              <mxPoint x="420" y="250" />
              <mxPoint x="390" y="250" />
            </Array>
          </mxGeometry>
        </mxCell>
        <mxCell id="Zg4xSdY9HF_8HJ5zWb1G-87" value="" style="endArrow=none;endFill=0;endSize=24;html=1;rounded=0;exitX=-0.006;exitY=0.163;exitDx=0;exitDy=0;exitPerimeter=0;" parent="WIyWlLk6GJQsqaUBKTNV-1" source="F4SfmG8yWQRCbflpEff_-43" edge="1">
          <mxGeometry width="160" relative="1" as="geometry">
            <mxPoint x="390" y="570" as="sourcePoint" />
            <mxPoint x="390" y="280" as="targetPoint" />
            <Array as="points">
              <mxPoint x="390" y="488" />
            </Array>
          </mxGeometry>
        </mxCell>
        <mxCell id="Zg4xSdY9HF_8HJ5zWb1G-88" value="" style="endArrow=none;endFill=0;endSize=24;html=1;rounded=0;" parent="WIyWlLk6GJQsqaUBKTNV-1" edge="1">
          <mxGeometry width="160" relative="1" as="geometry">
            <mxPoint x="460" y="350" as="sourcePoint" />
            <mxPoint x="390" y="210" as="targetPoint" />
            <Array as="points">
              <mxPoint x="390" y="350" />
            </Array>
          </mxGeometry>
        </mxCell>
        <mxCell id="Zg4xSdY9HF_8HJ5zWb1G-148" style="edgeStyle=orthogonalEdgeStyle;rounded=0;orthogonalLoop=1;jettySize=auto;html=1;entryX=1;entryY=0.5;entryDx=0;entryDy=0;endSize=24;endArrow=diamondThin;endFill=1;exitX=-0.013;exitY=-0.065;exitDx=0;exitDy=0;exitPerimeter=0;" parent="WIyWlLk6GJQsqaUBKTNV-1" source="tZ3S3SGwoQVy9rD-pLHr-13" edge="1">
          <mxGeometry relative="1" as="geometry">
            <Array as="points">
              <mxPoint x="-520" y="270" />
              <mxPoint x="-520" y="873" />
            </Array>
            <mxPoint x="-480" y="270" as="sourcePoint" />
            <mxPoint x="-630.0000000000005" y="873.0000000000005" as="targetPoint" />
          </mxGeometry>
        </mxCell>
        <mxCell id="Zg4xSdY9HF_8HJ5zWb1G-108" value="" style="endArrow=diamondThin;endFill=0;endSize=24;html=1;rounded=0;" parent="WIyWlLk6GJQsqaUBKTNV-1" edge="1">
          <mxGeometry width="160" relative="1" as="geometry">
            <mxPoint x="-362" y="406" as="sourcePoint" />
            <mxPoint x="-362" y="376" as="targetPoint" />
            <Array as="points">
              <mxPoint x="-362" y="426" />
            </Array>
          </mxGeometry>
        </mxCell>
        <mxCell id="Zg4xSdY9HF_8HJ5zWb1G-225" style="edgeStyle=orthogonalEdgeStyle;rounded=0;orthogonalLoop=1;jettySize=auto;html=1;endArrow=none;endFill=0;" parent="WIyWlLk6GJQsqaUBKTNV-1" source="Zg4xSdY9HF_8HJ5zWb1G-164" edge="1">
          <mxGeometry relative="1" as="geometry">
            <mxPoint x="400" y="951.5" as="targetPoint" />
          </mxGeometry>
        </mxCell>
        <mxCell id="Zg4xSdY9HF_8HJ5zWb1G-164" value="Title" style="swimlane;fontStyle=1;align=center;verticalAlign=top;childLayout=stackLayout;horizontal=1;startSize=26;horizontalStack=0;resizeParent=1;resizeParentMax=0;resizeLast=0;collapsible=1;marginBottom=0;whiteSpace=wrap;html=1;" parent="WIyWlLk6GJQsqaUBKTNV-1" vertex="1">
          <mxGeometry x="447" y="846.5" width="190" height="52" as="geometry" />
        </mxCell>
        <mxCell id="Yxs3lL2GmkJkZCIq6K22-68" value="+ value" style="text;strokeColor=none;fillColor=none;align=left;verticalAlign=top;spacingLeft=4;spacingRight=4;overflow=hidden;rotatable=0;points=[[0,0.5],[1,0.5]];portConstraint=eastwest;whiteSpace=wrap;html=1;" vertex="1" parent="Zg4xSdY9HF_8HJ5zWb1G-164">
          <mxGeometry y="26" width="190" height="26" as="geometry" />
        </mxCell>
        <mxCell id="Zg4xSdY9HF_8HJ5zWb1G-224" style="edgeStyle=orthogonalEdgeStyle;rounded=0;orthogonalLoop=1;jettySize=auto;html=1;endArrow=diamondThin;endFill=0;endSize=24;entryX=1;entryY=0.308;entryDx=0;entryDy=0;entryPerimeter=0;" parent="WIyWlLk6GJQsqaUBKTNV-1" source="Zg4xSdY9HF_8HJ5zWb1G-165" edge="1" target="LZeagaZdkeRXc3EkssTc-2">
          <mxGeometry relative="1" as="geometry">
            <mxPoint x="300" y="940" as="targetPoint" />
            <Array as="points">
              <mxPoint x="440" y="940" />
              <mxPoint x="440" y="940" />
            </Array>
          </mxGeometry>
        </mxCell>
        <mxCell id="Zg4xSdY9HF_8HJ5zWb1G-226" style="edgeStyle=orthogonalEdgeStyle;rounded=0;orthogonalLoop=1;jettySize=auto;html=1;endArrow=none;endFill=0;targetPerimeterSpacing=-1;" parent="WIyWlLk6GJQsqaUBKTNV-1" source="Zg4xSdY9HF_8HJ5zWb1G-165" edge="1">
          <mxGeometry relative="1" as="geometry">
            <mxPoint x="693" y="946.5" as="targetPoint" />
          </mxGeometry>
        </mxCell>
        <mxCell id="Zg4xSdY9HF_8HJ5zWb1G-165" value="Text" style="swimlane;fontStyle=1;align=center;verticalAlign=top;childLayout=stackLayout;horizontal=1;startSize=26;horizontalStack=0;resizeParent=1;resizeParentMax=0;resizeLast=0;collapsible=1;marginBottom=0;whiteSpace=wrap;html=1;" parent="WIyWlLk6GJQsqaUBKTNV-1" vertex="1">
          <mxGeometry x="447" y="920.5" width="190" height="52" as="geometry" />
        </mxCell>
        <mxCell id="Yxs3lL2GmkJkZCIq6K22-69" value="+ value" style="text;strokeColor=none;fillColor=none;align=left;verticalAlign=top;spacingLeft=4;spacingRight=4;overflow=hidden;rotatable=0;points=[[0,0.5],[1,0.5]];portConstraint=eastwest;whiteSpace=wrap;html=1;" vertex="1" parent="Zg4xSdY9HF_8HJ5zWb1G-165">
          <mxGeometry y="26" width="190" height="26" as="geometry" />
        </mxCell>
        <mxCell id="Zg4xSdY9HF_8HJ5zWb1G-177" value="" style="endArrow=none;endFill=0;endSize=24;html=1;rounded=0;exitX=0;exitY=0.5;exitDx=0;exitDy=0;" parent="WIyWlLk6GJQsqaUBKTNV-1" edge="1">
          <mxGeometry width="160" relative="1" as="geometry">
            <mxPoint x="447" y="1040.5" as="sourcePoint" />
            <mxPoint x="400" y="945.5" as="targetPoint" />
            <Array as="points">
              <mxPoint x="400" y="1040.5" />
              <mxPoint x="400" y="945.5" />
            </Array>
          </mxGeometry>
        </mxCell>
        <mxCell id="Zg4xSdY9HF_8HJ5zWb1G-227" style="edgeStyle=orthogonalEdgeStyle;rounded=0;orthogonalLoop=1;jettySize=auto;html=1;endSize=26;endArrow=diamondThin;endFill=0;" parent="WIyWlLk6GJQsqaUBKTNV-1" edge="1">
          <mxGeometry relative="1" as="geometry">
            <mxPoint x="-360" y="1156" as="sourcePoint" />
            <mxPoint x="-360" y="1096" as="targetPoint" />
            <Array as="points">
              <mxPoint x="-360" y="1146" />
              <mxPoint x="-360" y="1146" />
            </Array>
          </mxGeometry>
        </mxCell>
        <mxCell id="Zg4xSdY9HF_8HJ5zWb1G-223" style="edgeStyle=orthogonalEdgeStyle;rounded=0;orthogonalLoop=1;jettySize=auto;html=1;exitX=1;exitY=0.5;exitDx=0;exitDy=0;endArrow=none;endFill=0;endSize=16;entryX=1.005;entryY=-0.098;entryDx=0;entryDy=0;entryPerimeter=0;" parent="WIyWlLk6GJQsqaUBKTNV-1" source="Yxs3lL2GmkJkZCIq6K22-73" edge="1" target="Yxs3lL2GmkJkZCIq6K22-68">
          <mxGeometry relative="1" as="geometry">
            <mxPoint x="637.0000000000005" y="1041.5" as="sourcePoint" />
            <mxPoint x="759" y="875.5" as="targetPoint" />
            <Array as="points">
              <mxPoint x="693" y="1040.5" />
              <mxPoint x="693" y="870.5" />
            </Array>
          </mxGeometry>
        </mxCell>
        <mxCell id="Zg4xSdY9HF_8HJ5zWb1G-233" value="CommandsHandler" style="swimlane;fontStyle=1;align=center;verticalAlign=top;childLayout=stackLayout;horizontal=1;startSize=26;horizontalStack=0;resizeParent=1;resizeParentMax=0;resizeLast=0;collapsible=1;marginBottom=0;whiteSpace=wrap;html=1;" parent="WIyWlLk6GJQsqaUBKTNV-1" vertex="1">
          <mxGeometry x="-457.5" y="1610" width="190" height="102" as="geometry" />
        </mxCell>
        <mxCell id="Zg4xSdY9HF_8HJ5zWb1G-244" value="+ sort(): None" style="text;strokeColor=none;fillColor=none;align=left;verticalAlign=top;spacingLeft=4;spacingRight=4;overflow=hidden;rotatable=0;points=[[0,0.5],[1,0.5]];portConstraint=eastwest;whiteSpace=wrap;html=1;" parent="Zg4xSdY9HF_8HJ5zWb1G-233" vertex="1">
          <mxGeometry y="26" width="190" height="26" as="geometry" />
        </mxCell>
        <mxCell id="Zg4xSdY9HF_8HJ5zWb1G-236" value="+ get_help(): None" style="text;strokeColor=none;fillColor=none;align=left;verticalAlign=top;spacingLeft=4;spacingRight=4;overflow=hidden;rotatable=0;points=[[0,0.5],[1,0.5]];portConstraint=eastwest;whiteSpace=wrap;html=1;" parent="Zg4xSdY9HF_8HJ5zWb1G-233" vertex="1">
          <mxGeometry y="52" width="190" height="26" as="geometry" />
        </mxCell>
        <mxCell id="Zg4xSdY9HF_8HJ5zWb1G-243" value="+ get_back(): None" style="text;strokeColor=none;fillColor=none;align=left;verticalAlign=top;spacingLeft=4;spacingRight=4;overflow=hidden;rotatable=0;points=[[0,0.5],[1,0.5]];portConstraint=eastwest;whiteSpace=wrap;html=1;" parent="Zg4xSdY9HF_8HJ5zWb1G-233" vertex="1">
          <mxGeometry y="78" width="190" height="24" as="geometry" />
        </mxCell>
        <mxCell id="Zg4xSdY9HF_8HJ5zWb1G-247" style="edgeStyle=orthogonalEdgeStyle;rounded=0;orthogonalLoop=1;jettySize=auto;html=1;entryX=1;entryY=0.5;entryDx=0;entryDy=0;endSize=26;endArrow=diamondThin;endFill=0;exitX=0;exitY=0.5;exitDx=10;exitDy=0;exitPerimeter=0;" parent="WIyWlLk6GJQsqaUBKTNV-1" source="hsnOLNXke1ENv1zZvH4C-0" target="Zg4xSdY9HF_8HJ5zWb1G-244" edge="1">
          <mxGeometry relative="1" as="geometry">
            <Array as="points" />
            <mxPoint x="-230" y="1630" as="sourcePoint" />
          </mxGeometry>
        </mxCell>
        <mxCell id="Zg4xSdY9HF_8HJ5zWb1G-249" style="edgeStyle=orthogonalEdgeStyle;rounded=0;orthogonalLoop=1;jettySize=auto;html=1;entryX=1;entryY=0.5;entryDx=0;entryDy=0;exitX=-0.011;exitY=1.04;exitDx=0;exitDy=0;exitPerimeter=0;" parent="WIyWlLk6GJQsqaUBKTNV-1" source="Q0Wkazqckw82V-nqnqLz-4" edge="1">
          <mxGeometry relative="1" as="geometry">
            <Array as="points">
              <mxPoint x="-520" y="993" />
              <mxPoint x="-520" y="873" />
            </Array>
            <mxPoint x="-419.4600000000005" y="1185.0600000000004" as="sourcePoint" />
            <mxPoint x="-630.0000000000005" y="873.0000000000005" as="targetPoint" />
          </mxGeometry>
        </mxCell>
        <mxCell id="Zg4xSdY9HF_8HJ5zWb1G-251" style="edgeStyle=orthogonalEdgeStyle;rounded=0;orthogonalLoop=1;jettySize=auto;html=1;" parent="WIyWlLk6GJQsqaUBKTNV-1" source="Zg4xSdY9HF_8HJ5zWb1G-236" edge="1">
          <mxGeometry relative="1" as="geometry">
            <Array as="points">
              <mxPoint x="-520" y="1675" />
              <mxPoint x="-520" y="873" />
            </Array>
            <mxPoint x="-630.0000000000005" y="873.0000000000005" as="targetPoint" />
          </mxGeometry>
        </mxCell>
        <mxCell id="tZ3S3SGwoQVy9rD-pLHr-0" value="Handler" style="swimlane;fontStyle=1;align=center;verticalAlign=top;childLayout=stackLayout;horizontal=1;startSize=26;horizontalStack=0;resizeParent=1;resizeParentMax=0;resizeLast=0;collapsible=1;marginBottom=0;whiteSpace=wrap;html=1;" vertex="1" parent="WIyWlLk6GJQsqaUBKTNV-1">
          <mxGeometry x="-860" y="790" width="230" height="190" as="geometry" />
        </mxCell>
        <mxCell id="tZ3S3SGwoQVy9rD-pLHr-1" value="+ help" style="text;strokeColor=none;fillColor=none;align=left;verticalAlign=top;spacingLeft=4;spacingRight=4;overflow=hidden;rotatable=0;points=[[0,0.5],[1,0.5]];portConstraint=eastwest;whiteSpace=wrap;html=1;" vertex="1" parent="tZ3S3SGwoQVy9rD-pLHr-0">
          <mxGeometry y="26" width="230" height="26" as="geometry" />
        </mxCell>
        <mxCell id="tZ3S3SGwoQVy9rD-pLHr-2" value="+ database" style="text;strokeColor=none;fillColor=none;align=left;verticalAlign=top;spacingLeft=4;spacingRight=4;overflow=hidden;rotatable=0;points=[[0,0.5],[1,0.5]];portConstraint=eastwest;whiteSpace=wrap;html=1;" vertex="1" parent="tZ3S3SGwoQVy9rD-pLHr-0">
          <mxGeometry y="52" width="230" height="26" as="geometry" />
        </mxCell>
        <mxCell id="tZ3S3SGwoQVy9rD-pLHr-3" value="+ commands" style="text;strokeColor=none;fillColor=none;align=left;verticalAlign=top;spacingLeft=4;spacingRight=4;overflow=hidden;rotatable=0;points=[[0,0.5],[1,0.5]];portConstraint=eastwest;whiteSpace=wrap;html=1;" vertex="1" parent="tZ3S3SGwoQVy9rD-pLHr-0">
          <mxGeometry y="78" width="230" height="26" as="geometry" />
        </mxCell>
        <mxCell id="tZ3S3SGwoQVy9rD-pLHr-4" value="" style="line;strokeWidth=1;fillColor=none;align=left;verticalAlign=middle;spacingTop=-1;spacingLeft=3;spacingRight=3;rotatable=0;labelPosition=right;points=[];portConstraint=eastwest;strokeColor=inherit;" vertex="1" parent="tZ3S3SGwoQVy9rD-pLHr-0">
          <mxGeometry y="104" width="230" height="8" as="geometry" />
        </mxCell>
        <mxCell id="tZ3S3SGwoQVy9rD-pLHr-5" value="+ get_command_suggestion(self, query)" style="text;strokeColor=none;fillColor=none;align=left;verticalAlign=top;spacingLeft=4;spacingRight=4;overflow=hidden;rotatable=0;points=[[0,0.5],[1,0.5]];portConstraint=eastwest;whiteSpace=wrap;html=1;" vertex="1" parent="tZ3S3SGwoQVy9rD-pLHr-0">
          <mxGeometry y="112" width="230" height="26" as="geometry" />
        </mxCell>
        <mxCell id="tZ3S3SGwoQVy9rD-pLHr-6" value="+ execute_commands(self, query)" style="text;strokeColor=none;fillColor=none;align=left;verticalAlign=top;spacingLeft=4;spacingRight=4;overflow=hidden;rotatable=0;points=[[0,0.5],[1,0.5]];portConstraint=eastwest;whiteSpace=wrap;html=1;" vertex="1" parent="tZ3S3SGwoQVy9rD-pLHr-0">
          <mxGeometry y="138" width="230" height="26" as="geometry" />
        </mxCell>
        <mxCell id="tZ3S3SGwoQVy9rD-pLHr-7" value="+ run(self)" style="text;strokeColor=none;fillColor=none;align=left;verticalAlign=top;spacingLeft=4;spacingRight=4;overflow=hidden;rotatable=0;points=[[0,0.5],[1,0.5]];portConstraint=eastwest;whiteSpace=wrap;html=1;" vertex="1" parent="tZ3S3SGwoQVy9rD-pLHr-0">
          <mxGeometry y="164" width="230" height="26" as="geometry" />
        </mxCell>
        <mxCell id="tZ3S3SGwoQVy9rD-pLHr-8" value="CommandsHandler" style="swimlane;fontStyle=1;align=center;verticalAlign=top;childLayout=stackLayout;horizontal=1;startSize=26;horizontalStack=0;resizeParent=1;resizeParentMax=0;resizeLast=0;collapsible=1;marginBottom=0;whiteSpace=wrap;html=1;" vertex="1" parent="WIyWlLk6GJQsqaUBKTNV-1">
          <mxGeometry x="-450" y="160" width="190" height="216" as="geometry" />
        </mxCell>
        <mxCell id="tZ3S3SGwoQVy9rD-pLHr-9" value="+ address_book" style="text;strokeColor=none;fillColor=none;align=left;verticalAlign=top;spacingLeft=4;spacingRight=4;overflow=hidden;rotatable=0;points=[[0,0.5],[1,0.5]];portConstraint=eastwest;whiteSpace=wrap;html=1;" vertex="1" parent="tZ3S3SGwoQVy9rD-pLHr-8">
          <mxGeometry y="26" width="190" height="26" as="geometry" />
        </mxCell>
        <mxCell id="tZ3S3SGwoQVy9rD-pLHr-10" value="" style="line;strokeWidth=1;fillColor=none;align=left;verticalAlign=middle;spacingTop=-1;spacingLeft=3;spacingRight=3;rotatable=0;labelPosition=right;points=[];portConstraint=eastwest;strokeColor=inherit;" vertex="1" parent="tZ3S3SGwoQVy9rD-pLHr-8">
          <mxGeometry y="52" width="190" height="8" as="geometry" />
        </mxCell>
        <mxCell id="tZ3S3SGwoQVy9rD-pLHr-11" value="+ add_contacts(self)" style="text;strokeColor=none;fillColor=none;align=left;verticalAlign=top;spacingLeft=4;spacingRight=4;overflow=hidden;rotatable=0;points=[[0,0.5],[1,0.5]];portConstraint=eastwest;whiteSpace=wrap;html=1;" vertex="1" parent="tZ3S3SGwoQVy9rD-pLHr-8">
          <mxGeometry y="60" width="190" height="26" as="geometry" />
        </mxCell>
        <mxCell id="tZ3S3SGwoQVy9rD-pLHr-12" value="+ show_all_contacts(self)" style="text;strokeColor=none;fillColor=none;align=left;verticalAlign=top;spacingLeft=4;spacingRight=4;overflow=hidden;rotatable=0;points=[[0,0.5],[1,0.5]];portConstraint=eastwest;whiteSpace=wrap;html=1;" vertex="1" parent="tZ3S3SGwoQVy9rD-pLHr-8">
          <mxGeometry y="86" width="190" height="26" as="geometry" />
        </mxCell>
        <mxCell id="tZ3S3SGwoQVy9rD-pLHr-13" value="+ find_contacts(self)" style="text;strokeColor=none;fillColor=none;align=left;verticalAlign=top;spacingLeft=4;spacingRight=4;overflow=hidden;rotatable=0;points=[[0,0.5],[1,0.5]];portConstraint=eastwest;whiteSpace=wrap;html=1;" vertex="1" parent="tZ3S3SGwoQVy9rD-pLHr-8">
          <mxGeometry y="112" width="190" height="26" as="geometry" />
        </mxCell>
        <mxCell id="tZ3S3SGwoQVy9rD-pLHr-14" value="+ birthday_contacts(self)" style="text;strokeColor=none;fillColor=none;align=left;verticalAlign=top;spacingLeft=4;spacingRight=4;overflow=hidden;rotatable=0;points=[[0,0.5],[1,0.5]];portConstraint=eastwest;whiteSpace=wrap;html=1;" vertex="1" parent="tZ3S3SGwoQVy9rD-pLHr-8">
          <mxGeometry y="138" width="190" height="26" as="geometry" />
        </mxCell>
        <mxCell id="tZ3S3SGwoQVy9rD-pLHr-15" value="+ change_contacts(self)" style="text;strokeColor=none;fillColor=none;align=left;verticalAlign=top;spacingLeft=4;spacingRight=4;overflow=hidden;rotatable=0;points=[[0,0.5],[1,0.5]];portConstraint=eastwest;whiteSpace=wrap;html=1;" vertex="1" parent="tZ3S3SGwoQVy9rD-pLHr-8">
          <mxGeometry y="164" width="190" height="26" as="geometry" />
        </mxCell>
        <mxCell id="tZ3S3SGwoQVy9rD-pLHr-16" value="+ remove_contacts(self)" style="text;strokeColor=none;fillColor=none;align=left;verticalAlign=top;spacingLeft=4;spacingRight=4;overflow=hidden;rotatable=0;points=[[0,0.5],[1,0.5]];portConstraint=eastwest;whiteSpace=wrap;html=1;" vertex="1" parent="tZ3S3SGwoQVy9rD-pLHr-8">
          <mxGeometry y="190" width="190" height="26" as="geometry" />
        </mxCell>
        <mxCell id="UJ4tmrZZu5sgA6uKyVmL-0" value="AddressBook" style="swimlane;fontStyle=1;align=center;verticalAlign=top;childLayout=stackLayout;horizontal=1;startSize=26;horizontalStack=0;resizeParent=1;resizeParentMax=0;resizeLast=0;collapsible=1;marginBottom=0;whiteSpace=wrap;html=1;" vertex="1" parent="WIyWlLk6GJQsqaUBKTNV-1">
          <mxGeometry x="-450" y="420" width="190" height="268" as="geometry" />
        </mxCell>
        <mxCell id="UJ4tmrZZu5sgA6uKyVmL-1" value="+ data" style="text;strokeColor=none;fillColor=none;align=left;verticalAlign=top;spacingLeft=4;spacingRight=4;overflow=hidden;rotatable=0;points=[[0,0.5],[1,0.5]];portConstraint=eastwest;whiteSpace=wrap;html=1;" vertex="1" parent="UJ4tmrZZu5sgA6uKyVmL-0">
          <mxGeometry y="26" width="190" height="26" as="geometry" />
        </mxCell>
        <mxCell id="UJ4tmrZZu5sgA6uKyVmL-2" value="- instance" style="text;strokeColor=none;fillColor=none;align=left;verticalAlign=top;spacingLeft=4;spacingRight=4;overflow=hidden;rotatable=0;points=[[0,0.5],[1,0.5]];portConstraint=eastwest;whiteSpace=wrap;html=1;" vertex="1" parent="UJ4tmrZZu5sgA6uKyVmL-0">
          <mxGeometry y="52" width="190" height="26" as="geometry" />
        </mxCell>
        <mxCell id="UJ4tmrZZu5sgA6uKyVmL-3" value="+ file_name" style="text;strokeColor=none;fillColor=none;align=left;verticalAlign=top;spacingLeft=4;spacingRight=4;overflow=hidden;rotatable=0;points=[[0,0.5],[1,0.5]];portConstraint=eastwest;whiteSpace=wrap;html=1;" vertex="1" parent="UJ4tmrZZu5sgA6uKyVmL-0">
          <mxGeometry y="78" width="190" height="26" as="geometry" />
        </mxCell>
        <mxCell id="UJ4tmrZZu5sgA6uKyVmL-4" value="" style="line;strokeWidth=1;fillColor=none;align=left;verticalAlign=middle;spacingTop=-1;spacingLeft=3;spacingRight=3;rotatable=0;labelPosition=right;points=[];portConstraint=eastwest;strokeColor=inherit;" vertex="1" parent="UJ4tmrZZu5sgA6uKyVmL-0">
          <mxGeometry y="104" width="190" height="8" as="geometry" />
        </mxCell>
        <mxCell id="UJ4tmrZZu5sgA6uKyVmL-5" value="- new (cls, *args, **kwargs)" style="text;strokeColor=none;fillColor=none;align=left;verticalAlign=top;spacingLeft=4;spacingRight=4;overflow=hidden;rotatable=0;points=[[0,0.5],[1,0.5]];portConstraint=eastwest;whiteSpace=wrap;html=1;" vertex="1" parent="UJ4tmrZZu5sgA6uKyVmL-0">
          <mxGeometry y="112" width="190" height="26" as="geometry" />
        </mxCell>
        <mxCell id="UJ4tmrZZu5sgA6uKyVmL-6" value="+ show_all_records(self)" style="text;strokeColor=none;fillColor=none;align=left;verticalAlign=top;spacingLeft=4;spacingRight=4;overflow=hidden;rotatable=0;points=[[0,0.5],[1,0.5]];portConstraint=eastwest;whiteSpace=wrap;html=1;" vertex="1" parent="UJ4tmrZZu5sgA6uKyVmL-0">
          <mxGeometry y="138" width="190" height="26" as="geometry" />
        </mxCell>
        <mxCell id="UJ4tmrZZu5sgA6uKyVmL-7" value="+ iterate(self, n=1)" style="text;strokeColor=none;fillColor=none;align=left;verticalAlign=top;spacingLeft=4;spacingRight=4;overflow=hidden;rotatable=0;points=[[0,0.5],[1,0.5]];portConstraint=eastwest;whiteSpace=wrap;html=1;" vertex="1" parent="UJ4tmrZZu5sgA6uKyVmL-0">
          <mxGeometry y="164" width="190" height="26" as="geometry" />
        </mxCell>
        <mxCell id="UJ4tmrZZu5sgA6uKyVmL-8" value="+ add_record(self, record)" style="text;strokeColor=none;fillColor=none;align=left;verticalAlign=top;spacingLeft=4;spacingRight=4;overflow=hidden;rotatable=0;points=[[0,0.5],[1,0.5]];portConstraint=eastwest;whiteSpace=wrap;html=1;" vertex="1" parent="UJ4tmrZZu5sgA6uKyVmL-0">
          <mxGeometry y="190" width="190" height="26" as="geometry" />
        </mxCell>
        <mxCell id="UJ4tmrZZu5sgA6uKyVmL-9" value="+ save_contacts(self)" style="text;strokeColor=none;fillColor=none;align=left;verticalAlign=top;spacingLeft=4;spacingRight=4;overflow=hidden;rotatable=0;points=[[0,0.5],[1,0.5]];portConstraint=eastwest;whiteSpace=wrap;html=1;" vertex="1" parent="UJ4tmrZZu5sgA6uKyVmL-0">
          <mxGeometry y="216" width="190" height="26" as="geometry" />
        </mxCell>
        <mxCell id="UJ4tmrZZu5sgA6uKyVmL-10" value="+ load_contacts(self)" style="text;strokeColor=none;fillColor=none;align=left;verticalAlign=top;spacingLeft=4;spacingRight=4;overflow=hidden;rotatable=0;points=[[0,0.5],[1,0.5]];portConstraint=eastwest;whiteSpace=wrap;html=1;" vertex="1" parent="UJ4tmrZZu5sgA6uKyVmL-0">
          <mxGeometry y="242" width="190" height="26" as="geometry" />
        </mxCell>
        <mxCell id="lZOToUq-JvtdV0hVTTb_-0" value="Record" style="swimlane;fontStyle=1;align=center;verticalAlign=top;childLayout=stackLayout;horizontal=1;startSize=26;horizontalStack=0;resizeParent=1;resizeParentMax=0;resizeLast=0;collapsible=1;marginBottom=0;whiteSpace=wrap;html=1;" vertex="1" parent="WIyWlLk6GJQsqaUBKTNV-1">
          <mxGeometry x="-80" y="160" width="340" height="320" as="geometry" />
        </mxCell>
        <mxCell id="lZOToUq-JvtdV0hVTTb_-1" value="+ birthday" style="text;strokeColor=none;fillColor=none;align=left;verticalAlign=top;spacingLeft=4;spacingRight=4;overflow=hidden;rotatable=0;points=[[0,0.5],[1,0.5]];portConstraint=eastwest;whiteSpace=wrap;html=1;" vertex="1" parent="lZOToUq-JvtdV0hVTTb_-0">
          <mxGeometry y="26" width="340" height="26" as="geometry" />
        </mxCell>
        <mxCell id="lZOToUq-JvtdV0hVTTb_-2" value="+ home_address" style="text;strokeColor=none;fillColor=none;align=left;verticalAlign=top;spacingLeft=4;spacingRight=4;overflow=hidden;rotatable=0;points=[[0,0.5],[1,0.5]];portConstraint=eastwest;whiteSpace=wrap;html=1;" vertex="1" parent="lZOToUq-JvtdV0hVTTb_-0">
          <mxGeometry y="52" width="340" height="26" as="geometry" />
        </mxCell>
        <mxCell id="lZOToUq-JvtdV0hVTTb_-3" value="+ name" style="text;strokeColor=none;fillColor=none;align=left;verticalAlign=top;spacingLeft=4;spacingRight=4;overflow=hidden;rotatable=0;points=[[0,0.5],[1,0.5]];portConstraint=eastwest;whiteSpace=wrap;html=1;" vertex="1" parent="lZOToUq-JvtdV0hVTTb_-0">
          <mxGeometry y="78" width="340" height="26" as="geometry" />
        </mxCell>
        <mxCell id="lZOToUq-JvtdV0hVTTb_-4" value="+ phones" style="text;strokeColor=none;fillColor=none;align=left;verticalAlign=top;spacingLeft=4;spacingRight=4;overflow=hidden;rotatable=0;points=[[0,0.5],[1,0.5]];portConstraint=eastwest;whiteSpace=wrap;html=1;" vertex="1" parent="lZOToUq-JvtdV0hVTTb_-0">
          <mxGeometry y="104" width="340" height="26" as="geometry" />
        </mxCell>
        <mxCell id="lZOToUq-JvtdV0hVTTb_-5" value="+ email" style="text;strokeColor=none;fillColor=none;align=left;verticalAlign=top;spacingLeft=4;spacingRight=4;overflow=hidden;rotatable=0;points=[[0,0.5],[1,0.5]];portConstraint=eastwest;whiteSpace=wrap;html=1;" vertex="1" parent="lZOToUq-JvtdV0hVTTb_-0">
          <mxGeometry y="130" width="340" height="26" as="geometry" />
        </mxCell>
        <mxCell id="lZOToUq-JvtdV0hVTTb_-6" value="" style="line;strokeWidth=1;fillColor=none;align=left;verticalAlign=middle;spacingTop=-1;spacingLeft=3;spacingRight=3;rotatable=0;labelPosition=right;points=[];portConstraint=eastwest;strokeColor=inherit;" vertex="1" parent="lZOToUq-JvtdV0hVTTb_-0">
          <mxGeometry y="156" width="340" height="8" as="geometry" />
        </mxCell>
        <mxCell id="lZOToUq-JvtdV0hVTTb_-7" value="+ add_phones(self, phone)" style="text;strokeColor=none;fillColor=none;align=left;verticalAlign=top;spacingLeft=4;spacingRight=4;overflow=hidden;rotatable=0;points=[[0,0.5],[1,0.5]];portConstraint=eastwest;whiteSpace=wrap;html=1;" vertex="1" parent="lZOToUq-JvtdV0hVTTb_-0">
          <mxGeometry y="164" width="340" height="26" as="geometry" />
        </mxCell>
        <mxCell id="lZOToUq-JvtdV0hVTTb_-8" value="+ create_phone(self, record, user_input=None, update=False)" style="text;strokeColor=none;fillColor=none;align=left;verticalAlign=top;spacingLeft=4;spacingRight=4;overflow=hidden;rotatable=0;points=[[0,0.5],[1,0.5]];portConstraint=eastwest;whiteSpace=wrap;html=1;" vertex="1" parent="lZOToUq-JvtdV0hVTTb_-0">
          <mxGeometry y="190" width="340" height="26" as="geometry" />
        </mxCell>
        <mxCell id="lZOToUq-JvtdV0hVTTb_-9" value="+ create_email(self, record, user_email)" style="text;strokeColor=none;fillColor=none;align=left;verticalAlign=top;spacingLeft=4;spacingRight=4;overflow=hidden;rotatable=0;points=[[0,0.5],[1,0.5]];portConstraint=eastwest;whiteSpace=wrap;html=1;" vertex="1" parent="lZOToUq-JvtdV0hVTTb_-0">
          <mxGeometry y="216" width="340" height="26" as="geometry" />
        </mxCell>
        <mxCell id="lZOToUq-JvtdV0hVTTb_-10" value="+ create_birthday(self, record, user_birthday)" style="text;strokeColor=none;fillColor=none;align=left;verticalAlign=top;spacingLeft=4;spacingRight=4;overflow=hidden;rotatable=0;points=[[0,0.5],[1,0.5]];portConstraint=eastwest;whiteSpace=wrap;html=1;" vertex="1" parent="lZOToUq-JvtdV0hVTTb_-0">
          <mxGeometry y="242" width="340" height="26" as="geometry" />
        </mxCell>
        <mxCell id="lZOToUq-JvtdV0hVTTb_-11" value="+ home_address_create(self, record, user_address)" style="text;strokeColor=none;fillColor=none;align=left;verticalAlign=top;spacingLeft=4;spacingRight=4;overflow=hidden;rotatable=0;points=[[0,0.5],[1,0.5]];portConstraint=eastwest;whiteSpace=wrap;html=1;" vertex="1" parent="lZOToUq-JvtdV0hVTTb_-0">
          <mxGeometry y="268" width="340" height="26" as="geometry" />
        </mxCell>
        <mxCell id="lZOToUq-JvtdV0hVTTb_-12" value="+ formatting_record(self, record)" style="text;strokeColor=none;fillColor=none;align=left;verticalAlign=top;spacingLeft=4;spacingRight=4;overflow=hidden;rotatable=0;points=[[0,0.5],[1,0.5]];portConstraint=eastwest;whiteSpace=wrap;html=1;" vertex="1" parent="lZOToUq-JvtdV0hVTTb_-0">
          <mxGeometry y="294" width="340" height="26" as="geometry" />
        </mxCell>
        <mxCell id="F4SfmG8yWQRCbflpEff_-34" value="Phone" style="swimlane;fontStyle=1;align=center;verticalAlign=top;childLayout=stackLayout;horizontal=1;startSize=26;horizontalStack=0;resizeParent=1;resizeParentMax=0;resizeLast=0;collapsible=1;marginBottom=0;whiteSpace=wrap;html=1;" vertex="1" parent="WIyWlLk6GJQsqaUBKTNV-1">
          <mxGeometry x="453" y="230" width="187" height="86" as="geometry" />
        </mxCell>
        <mxCell id="F4SfmG8yWQRCbflpEff_-35" value="+ value" style="text;strokeColor=none;fillColor=none;align=left;verticalAlign=top;spacingLeft=4;spacingRight=4;overflow=hidden;rotatable=0;points=[[0,0.5],[1,0.5]];portConstraint=eastwest;whiteSpace=wrap;html=1;" vertex="1" parent="F4SfmG8yWQRCbflpEff_-34">
          <mxGeometry y="26" width="187" height="26" as="geometry" />
        </mxCell>
        <mxCell id="F4SfmG8yWQRCbflpEff_-36" value="" style="line;strokeWidth=1;fillColor=none;align=left;verticalAlign=middle;spacingTop=-1;spacingLeft=3;spacingRight=3;rotatable=0;labelPosition=right;points=[];portConstraint=eastwest;strokeColor=inherit;" vertex="1" parent="F4SfmG8yWQRCbflpEff_-34">
          <mxGeometry y="52" width="187" height="8" as="geometry" />
        </mxCell>
        <mxCell id="F4SfmG8yWQRCbflpEff_-37" value="+ validate_phone(self, phone)" style="text;strokeColor=none;fillColor=none;align=left;verticalAlign=top;spacingLeft=4;spacingRight=4;overflow=hidden;rotatable=0;points=[[0,0.5],[1,0.5]];portConstraint=eastwest;whiteSpace=wrap;html=1;" vertex="1" parent="F4SfmG8yWQRCbflpEff_-34">
          <mxGeometry y="60" width="187" height="26" as="geometry" />
        </mxCell>
        <mxCell id="F4SfmG8yWQRCbflpEff_-31" value="Email" style="swimlane;fontStyle=1;align=center;verticalAlign=top;childLayout=stackLayout;horizontal=1;startSize=26;horizontalStack=0;resizeParent=1;resizeParentMax=0;resizeLast=0;collapsible=1;marginBottom=0;whiteSpace=wrap;html=1;" vertex="1" parent="WIyWlLk6GJQsqaUBKTNV-1">
          <mxGeometry x="453" y="330" width="187" height="52" as="geometry" />
        </mxCell>
        <mxCell id="F4SfmG8yWQRCbflpEff_-32" value="+ validate_email(self,email)" style="text;strokeColor=none;fillColor=none;align=left;verticalAlign=top;spacingLeft=4;spacingRight=4;overflow=hidden;rotatable=0;points=[[0,0.5],[1,0.5]];portConstraint=eastwest;whiteSpace=wrap;html=1;" vertex="1" parent="F4SfmG8yWQRCbflpEff_-31">
          <mxGeometry y="26" width="187" height="26" as="geometry" />
        </mxCell>
        <mxCell id="F4SfmG8yWQRCbflpEff_-43" value="Birthday" style="swimlane;fontStyle=1;align=center;verticalAlign=top;childLayout=stackLayout;horizontal=1;startSize=26;horizontalStack=0;resizeParent=1;resizeParentMax=0;resizeLast=0;collapsible=1;marginBottom=0;whiteSpace=wrap;html=1;" vertex="1" parent="WIyWlLk6GJQsqaUBKTNV-1">
          <mxGeometry x="453" y="470" width="210" height="112" as="geometry" />
        </mxCell>
        <mxCell id="F4SfmG8yWQRCbflpEff_-44" value="+ value" style="text;strokeColor=none;fillColor=none;align=left;verticalAlign=top;spacingLeft=4;spacingRight=4;overflow=hidden;rotatable=0;points=[[0,0.5],[1,0.5]];portConstraint=eastwest;whiteSpace=wrap;html=1;" vertex="1" parent="F4SfmG8yWQRCbflpEff_-43">
          <mxGeometry y="26" width="210" height="26" as="geometry" />
        </mxCell>
        <mxCell id="F4SfmG8yWQRCbflpEff_-45" value="" style="line;strokeWidth=1;fillColor=none;align=left;verticalAlign=middle;spacingTop=-1;spacingLeft=3;spacingRight=3;rotatable=0;labelPosition=right;points=[];portConstraint=eastwest;strokeColor=inherit;" vertex="1" parent="F4SfmG8yWQRCbflpEff_-43">
          <mxGeometry y="52" width="210" height="8" as="geometry" />
        </mxCell>
        <mxCell id="F4SfmG8yWQRCbflpEff_-46" value="+ set_value(self,value)" style="text;strokeColor=none;fillColor=none;align=left;verticalAlign=top;spacingLeft=4;spacingRight=4;overflow=hidden;rotatable=0;points=[[0,0.5],[1,0.5]];portConstraint=eastwest;whiteSpace=wrap;html=1;" vertex="1" parent="F4SfmG8yWQRCbflpEff_-43">
          <mxGeometry y="60" width="210" height="26" as="geometry" />
        </mxCell>
        <mxCell id="F4SfmG8yWQRCbflpEff_-47" value="+ validate_birthday(self,birthday)&amp;nbsp;" style="text;strokeColor=none;fillColor=none;align=left;verticalAlign=top;spacingLeft=4;spacingRight=4;overflow=hidden;rotatable=0;points=[[0,0.5],[1,0.5]];portConstraint=eastwest;whiteSpace=wrap;html=1;" vertex="1" parent="F4SfmG8yWQRCbflpEff_-43">
          <mxGeometry y="86" width="210" height="26" as="geometry" />
        </mxCell>
        <mxCell id="F4SfmG8yWQRCbflpEff_-49" value="" style="endArrow=none;endSize=16;endFill=0;html=1;rounded=0;" edge="1" parent="WIyWlLk6GJQsqaUBKTNV-1">
          <mxGeometry x="0.75" y="-40" width="160" relative="1" as="geometry">
            <mxPoint x="390" y="410" as="sourcePoint" />
            <mxPoint x="453" y="410" as="targetPoint" />
            <Array as="points" />
            <mxPoint as="offset" />
          </mxGeometry>
        </mxCell>
        <mxCell id="Q0Wkazqckw82V-nqnqLz-0" value="CommandsHandler" style="swimlane;fontStyle=1;align=center;verticalAlign=top;childLayout=stackLayout;horizontal=1;startSize=26;horizontalStack=0;resizeParent=1;resizeParentMax=0;resizeLast=0;collapsible=1;marginBottom=0;whiteSpace=wrap;html=1;" vertex="1" parent="WIyWlLk6GJQsqaUBKTNV-1">
          <mxGeometry x="-450" y="880" width="190" height="216" as="geometry" />
        </mxCell>
        <mxCell id="Q0Wkazqckw82V-nqnqLz-1" value="+ notebook" style="text;strokeColor=none;fillColor=none;align=left;verticalAlign=top;spacingLeft=4;spacingRight=4;overflow=hidden;rotatable=0;points=[[0,0.5],[1,0.5]];portConstraint=eastwest;whiteSpace=wrap;html=1;" vertex="1" parent="Q0Wkazqckw82V-nqnqLz-0">
          <mxGeometry y="26" width="190" height="26" as="geometry" />
        </mxCell>
        <mxCell id="Q0Wkazqckw82V-nqnqLz-2" value="" style="line;strokeWidth=1;fillColor=none;align=left;verticalAlign=middle;spacingTop=-1;spacingLeft=3;spacingRight=3;rotatable=0;labelPosition=right;points=[];portConstraint=eastwest;strokeColor=inherit;" vertex="1" parent="Q0Wkazqckw82V-nqnqLz-0">
          <mxGeometry y="52" width="190" height="8" as="geometry" />
        </mxCell>
        <mxCell id="Q0Wkazqckw82V-nqnqLz-3" value="+ add_note(self)" style="text;strokeColor=none;fillColor=none;align=left;verticalAlign=top;spacingLeft=4;spacingRight=4;overflow=hidden;rotatable=0;points=[[0,0.5],[1,0.5]];portConstraint=eastwest;whiteSpace=wrap;html=1;" vertex="1" parent="Q0Wkazqckw82V-nqnqLz-0">
          <mxGeometry y="60" width="190" height="26" as="geometry" />
        </mxCell>
        <mxCell id="Q0Wkazqckw82V-nqnqLz-4" value="+ show_all_notes(self)" style="text;strokeColor=none;fillColor=none;align=left;verticalAlign=top;spacingLeft=4;spacingRight=4;overflow=hidden;rotatable=0;points=[[0,0.5],[1,0.5]];portConstraint=eastwest;whiteSpace=wrap;html=1;" vertex="1" parent="Q0Wkazqckw82V-nqnqLz-0">
          <mxGeometry y="86" width="190" height="26" as="geometry" />
        </mxCell>
        <mxCell id="Q0Wkazqckw82V-nqnqLz-5" value="+ find_note(self)" style="text;strokeColor=none;fillColor=none;align=left;verticalAlign=top;spacingLeft=4;spacingRight=4;overflow=hidden;rotatable=0;points=[[0,0.5],[1,0.5]];portConstraint=eastwest;whiteSpace=wrap;html=1;" vertex="1" parent="Q0Wkazqckw82V-nqnqLz-0">
          <mxGeometry y="112" width="190" height="26" as="geometry" />
        </mxCell>
        <mxCell id="Q0Wkazqckw82V-nqnqLz-6" value="+ sort_notes_by_tag(self)" style="text;strokeColor=none;fillColor=none;align=left;verticalAlign=top;spacingLeft=4;spacingRight=4;overflow=hidden;rotatable=0;points=[[0,0.5],[1,0.5]];portConstraint=eastwest;whiteSpace=wrap;html=1;" vertex="1" parent="Q0Wkazqckw82V-nqnqLz-0">
          <mxGeometry y="138" width="190" height="26" as="geometry" />
        </mxCell>
        <mxCell id="Q0Wkazqckw82V-nqnqLz-7" value="+ change_note(self)" style="text;strokeColor=none;fillColor=none;align=left;verticalAlign=top;spacingLeft=4;spacingRight=4;overflow=hidden;rotatable=0;points=[[0,0.5],[1,0.5]];portConstraint=eastwest;whiteSpace=wrap;html=1;" vertex="1" parent="Q0Wkazqckw82V-nqnqLz-0">
          <mxGeometry y="164" width="190" height="26" as="geometry" />
        </mxCell>
        <mxCell id="Q0Wkazqckw82V-nqnqLz-8" value="+ remove_note(self)" style="text;strokeColor=none;fillColor=none;align=left;verticalAlign=top;spacingLeft=4;spacingRight=4;overflow=hidden;rotatable=0;points=[[0,0.5],[1,0.5]];portConstraint=eastwest;whiteSpace=wrap;html=1;" vertex="1" parent="Q0Wkazqckw82V-nqnqLz-0">
          <mxGeometry y="190" width="190" height="26" as="geometry" />
        </mxCell>
        <mxCell id="4WgkDRP1L0WlLXASTlf2-0" value="Notebook" style="swimlane;fontStyle=1;align=center;verticalAlign=top;childLayout=stackLayout;horizontal=1;startSize=26;horizontalStack=0;resizeParent=1;resizeParentMax=0;resizeLast=0;collapsible=1;marginBottom=0;whiteSpace=wrap;html=1;" vertex="1" parent="WIyWlLk6GJQsqaUBKTNV-1">
          <mxGeometry x="-450" y="1140" width="190" height="268" as="geometry" />
        </mxCell>
        <mxCell id="4WgkDRP1L0WlLXASTlf2-1" value="+ data" style="text;strokeColor=none;fillColor=none;align=left;verticalAlign=top;spacingLeft=4;spacingRight=4;overflow=hidden;rotatable=0;points=[[0,0.5],[1,0.5]];portConstraint=eastwest;whiteSpace=wrap;html=1;" vertex="1" parent="4WgkDRP1L0WlLXASTlf2-0">
          <mxGeometry y="26" width="190" height="26" as="geometry" />
        </mxCell>
        <mxCell id="4WgkDRP1L0WlLXASTlf2-2" value="- instance" style="text;strokeColor=none;fillColor=none;align=left;verticalAlign=top;spacingLeft=4;spacingRight=4;overflow=hidden;rotatable=0;points=[[0,0.5],[1,0.5]];portConstraint=eastwest;whiteSpace=wrap;html=1;" vertex="1" parent="4WgkDRP1L0WlLXASTlf2-0">
          <mxGeometry y="52" width="190" height="26" as="geometry" />
        </mxCell>
        <mxCell id="4WgkDRP1L0WlLXASTlf2-3" value="+ file_name" style="text;strokeColor=none;fillColor=none;align=left;verticalAlign=top;spacingLeft=4;spacingRight=4;overflow=hidden;rotatable=0;points=[[0,0.5],[1,0.5]];portConstraint=eastwest;whiteSpace=wrap;html=1;" vertex="1" parent="4WgkDRP1L0WlLXASTlf2-0">
          <mxGeometry y="78" width="190" height="26" as="geometry" />
        </mxCell>
        <mxCell id="4WgkDRP1L0WlLXASTlf2-4" value="" style="line;strokeWidth=1;fillColor=none;align=left;verticalAlign=middle;spacingTop=-1;spacingLeft=3;spacingRight=3;rotatable=0;labelPosition=right;points=[];portConstraint=eastwest;strokeColor=inherit;" vertex="1" parent="4WgkDRP1L0WlLXASTlf2-0">
          <mxGeometry y="104" width="190" height="8" as="geometry" />
        </mxCell>
        <mxCell id="4WgkDRP1L0WlLXASTlf2-5" value="- new (cls, *args, **kwargs)" style="text;strokeColor=none;fillColor=none;align=left;verticalAlign=top;spacingLeft=4;spacingRight=4;overflow=hidden;rotatable=0;points=[[0,0.5],[1,0.5]];portConstraint=eastwest;whiteSpace=wrap;html=1;" vertex="1" parent="4WgkDRP1L0WlLXASTlf2-0">
          <mxGeometry y="112" width="190" height="26" as="geometry" />
        </mxCell>
        <mxCell id="4WgkDRP1L0WlLXASTlf2-6" value="+ show_all_records(self)" style="text;strokeColor=none;fillColor=none;align=left;verticalAlign=top;spacingLeft=4;spacingRight=4;overflow=hidden;rotatable=0;points=[[0,0.5],[1,0.5]];portConstraint=eastwest;whiteSpace=wrap;html=1;" vertex="1" parent="4WgkDRP1L0WlLXASTlf2-0">
          <mxGeometry y="138" width="190" height="26" as="geometry" />
        </mxCell>
        <mxCell id="4WgkDRP1L0WlLXASTlf2-7" value="+ iterate(self, n=1)" style="text;strokeColor=none;fillColor=none;align=left;verticalAlign=top;spacingLeft=4;spacingRight=4;overflow=hidden;rotatable=0;points=[[0,0.5],[1,0.5]];portConstraint=eastwest;whiteSpace=wrap;html=1;" vertex="1" parent="4WgkDRP1L0WlLXASTlf2-0">
          <mxGeometry y="164" width="190" height="26" as="geometry" />
        </mxCell>
        <mxCell id="4WgkDRP1L0WlLXASTlf2-8" value="+ add_record(self, record)" style="text;strokeColor=none;fillColor=none;align=left;verticalAlign=top;spacingLeft=4;spacingRight=4;overflow=hidden;rotatable=0;points=[[0,0.5],[1,0.5]];portConstraint=eastwest;whiteSpace=wrap;html=1;" vertex="1" parent="4WgkDRP1L0WlLXASTlf2-0">
          <mxGeometry y="190" width="190" height="26" as="geometry" />
        </mxCell>
        <mxCell id="4WgkDRP1L0WlLXASTlf2-9" value="+ save_notes(self)" style="text;strokeColor=none;fillColor=none;align=left;verticalAlign=top;spacingLeft=4;spacingRight=4;overflow=hidden;rotatable=0;points=[[0,0.5],[1,0.5]];portConstraint=eastwest;whiteSpace=wrap;html=1;" vertex="1" parent="4WgkDRP1L0WlLXASTlf2-0">
          <mxGeometry y="216" width="190" height="26" as="geometry" />
        </mxCell>
        <mxCell id="4WgkDRP1L0WlLXASTlf2-10" value="+ load_notes(self)" style="text;strokeColor=none;fillColor=none;align=left;verticalAlign=top;spacingLeft=4;spacingRight=4;overflow=hidden;rotatable=0;points=[[0,0.5],[1,0.5]];portConstraint=eastwest;whiteSpace=wrap;html=1;" vertex="1" parent="4WgkDRP1L0WlLXASTlf2-0">
          <mxGeometry y="242" width="190" height="26" as="geometry" />
        </mxCell>
        <mxCell id="hsnOLNXke1ENv1zZvH4C-0" value="" style="shape=module;align=left;spacingLeft=20;align=center;verticalAlign=top;whiteSpace=wrap;html=1;" vertex="1" parent="WIyWlLk6GJQsqaUBKTNV-1">
          <mxGeometry x="-180" y="1579" width="205" height="140" as="geometry" />
        </mxCell>
        <mxCell id="hsnOLNXke1ENv1zZvH4C-1" value="Cleaner" style="text;align=center;fontStyle=1;verticalAlign=middle;spacingLeft=3;spacingRight=3;strokeColor=none;rotatable=0;points=[[0,0.5],[1,0.5]];portConstraint=eastwest;html=1;" vertex="1" parent="WIyWlLk6GJQsqaUBKTNV-1">
          <mxGeometry x="-100" y="1579" width="80" height="26" as="geometry" />
        </mxCell>
        <mxCell id="hsnOLNXke1ENv1zZvH4C-2" value="create_folders_from_list" style="text;strokeColor=none;fillColor=none;align=left;verticalAlign=top;spacingLeft=4;spacingRight=4;overflow=hidden;rotatable=0;points=[[0,0.5],[1,0.5]];portConstraint=eastwest;whiteSpace=wrap;html=1;" vertex="1" parent="WIyWlLk6GJQsqaUBKTNV-1">
          <mxGeometry x="-150" y="1605" width="140" height="26" as="geometry" />
        </mxCell>
        <mxCell id="hsnOLNXke1ENv1zZvH4C-3" value="paths" style="text;strokeColor=none;fillColor=none;align=left;verticalAlign=top;spacingLeft=4;spacingRight=4;overflow=hidden;rotatable=0;points=[[0,0.5],[1,0.5]];portConstraint=eastwest;whiteSpace=wrap;html=1;" vertex="1" parent="WIyWlLk6GJQsqaUBKTNV-1">
          <mxGeometry x="-150" y="1629" width="100" height="26" as="geometry" />
        </mxCell>
        <mxCell id="hsnOLNXke1ENv1zZvH4C-4" value="sort_files" style="text;strokeColor=none;fillColor=none;align=left;verticalAlign=top;spacingLeft=4;spacingRight=4;overflow=hidden;rotatable=0;points=[[0,0.5],[1,0.5]];portConstraint=eastwest;whiteSpace=wrap;html=1;" vertex="1" parent="WIyWlLk6GJQsqaUBKTNV-1">
          <mxGeometry x="-150" y="1655" width="100" height="26" as="geometry" />
        </mxCell>
        <mxCell id="hsnOLNXke1ENv1zZvH4C-5" value="remove_empty_folders" style="text;strokeColor=none;fillColor=none;align=left;verticalAlign=top;spacingLeft=4;spacingRight=4;overflow=hidden;rotatable=0;points=[[0,0.5],[1,0.5]];portConstraint=eastwest;whiteSpace=wrap;html=1;" vertex="1" parent="WIyWlLk6GJQsqaUBKTNV-1">
          <mxGeometry x="-150" y="1681" width="140" height="26" as="geometry" />
        </mxCell>
        <mxCell id="LZeagaZdkeRXc3EkssTc-0" value="Record" style="swimlane;fontStyle=1;align=center;verticalAlign=top;childLayout=stackLayout;horizontal=1;startSize=26;horizontalStack=0;resizeParent=1;resizeParentMax=0;resizeLast=0;collapsible=1;marginBottom=0;whiteSpace=wrap;html=1;" vertex="1" parent="WIyWlLk6GJQsqaUBKTNV-1">
          <mxGeometry x="-80" y="880" width="340" height="242" as="geometry" />
        </mxCell>
        <mxCell id="LZeagaZdkeRXc3EkssTc-1" value="+ text" style="text;strokeColor=none;fillColor=none;align=left;verticalAlign=top;spacingLeft=4;spacingRight=4;overflow=hidden;rotatable=0;points=[[0,0.5],[1,0.5]];portConstraint=eastwest;whiteSpace=wrap;html=1;" vertex="1" parent="LZeagaZdkeRXc3EkssTc-0">
          <mxGeometry y="26" width="340" height="26" as="geometry" />
        </mxCell>
        <mxCell id="LZeagaZdkeRXc3EkssTc-2" value="+ title" style="text;strokeColor=none;fillColor=none;align=left;verticalAlign=top;spacingLeft=4;spacingRight=4;overflow=hidden;rotatable=0;points=[[0,0.5],[1,0.5]];portConstraint=eastwest;whiteSpace=wrap;html=1;" vertex="1" parent="LZeagaZdkeRXc3EkssTc-0">
          <mxGeometry y="52" width="340" height="26" as="geometry" />
        </mxCell>
        <mxCell id="LZeagaZdkeRXc3EkssTc-3" value="+ tags" style="text;strokeColor=none;fillColor=none;align=left;verticalAlign=top;spacingLeft=4;spacingRight=4;overflow=hidden;rotatable=0;points=[[0,0.5],[1,0.5]];portConstraint=eastwest;whiteSpace=wrap;html=1;" vertex="1" parent="LZeagaZdkeRXc3EkssTc-0">
          <mxGeometry y="78" width="340" height="26" as="geometry" />
        </mxCell>
        <mxCell id="LZeagaZdkeRXc3EkssTc-4" value="" style="line;strokeWidth=1;fillColor=none;align=left;verticalAlign=middle;spacingTop=-1;spacingLeft=3;spacingRight=3;rotatable=0;labelPosition=right;points=[];portConstraint=eastwest;strokeColor=inherit;" vertex="1" parent="LZeagaZdkeRXc3EkssTc-0">
          <mxGeometry y="104" width="340" height="8" as="geometry" />
        </mxCell>
        <mxCell id="LZeagaZdkeRXc3EkssTc-5" value="+ add_tags(self, tag)" style="text;strokeColor=none;fillColor=none;align=left;verticalAlign=top;spacingLeft=4;spacingRight=4;overflow=hidden;rotatable=0;points=[[0,0.5],[1,0.5]];portConstraint=eastwest;whiteSpace=wrap;html=1;" vertex="1" parent="LZeagaZdkeRXc3EkssTc-0">
          <mxGeometry y="112" width="340" height="26" as="geometry" />
        </mxCell>
        <mxCell id="LZeagaZdkeRXc3EkssTc-6" value="+ create_tag(self, record, user_tag=None, update=False)" style="text;strokeColor=none;fillColor=none;align=left;verticalAlign=top;spacingLeft=4;spacingRight=4;overflow=hidden;rotatable=0;points=[[0,0.5],[1,0.5]];portConstraint=eastwest;whiteSpace=wrap;html=1;" vertex="1" parent="LZeagaZdkeRXc3EkssTc-0">
          <mxGeometry y="138" width="340" height="26" as="geometry" />
        </mxCell>
        <mxCell id="LZeagaZdkeRXc3EkssTc-7" value="+ create_text(self, record, user_text)" style="text;strokeColor=none;fillColor=none;align=left;verticalAlign=top;spacingLeft=4;spacingRight=4;overflow=hidden;rotatable=0;points=[[0,0.5],[1,0.5]];portConstraint=eastwest;whiteSpace=wrap;html=1;" vertex="1" parent="LZeagaZdkeRXc3EkssTc-0">
          <mxGeometry y="164" width="340" height="26" as="geometry" />
        </mxCell>
        <mxCell id="LZeagaZdkeRXc3EkssTc-8" value="+ create_title(self, record, user_title)" style="text;strokeColor=none;fillColor=none;align=left;verticalAlign=top;spacingLeft=4;spacingRight=4;overflow=hidden;rotatable=0;points=[[0,0.5],[1,0.5]];portConstraint=eastwest;whiteSpace=wrap;html=1;" vertex="1" parent="LZeagaZdkeRXc3EkssTc-0">
          <mxGeometry y="190" width="340" height="26" as="geometry" />
        </mxCell>
        <mxCell id="LZeagaZdkeRXc3EkssTc-9" value="+ formatting_record(self, record)" style="text;strokeColor=none;fillColor=none;align=left;verticalAlign=top;spacingLeft=4;spacingRight=4;overflow=hidden;rotatable=0;points=[[0,0.5],[1,0.5]];portConstraint=eastwest;whiteSpace=wrap;html=1;" vertex="1" parent="LZeagaZdkeRXc3EkssTc-0">
          <mxGeometry y="216" width="340" height="26" as="geometry" />
        </mxCell>
        <mxCell id="Yxs3lL2GmkJkZCIq6K22-72" value="Tag" style="swimlane;fontStyle=1;align=center;verticalAlign=top;childLayout=stackLayout;horizontal=1;startSize=26;horizontalStack=0;resizeParent=1;resizeParentMax=0;resizeLast=0;collapsible=1;marginBottom=0;whiteSpace=wrap;html=1;" vertex="1" parent="WIyWlLk6GJQsqaUBKTNV-1">
          <mxGeometry x="447" y="1001.5" width="196" height="86" as="geometry" />
        </mxCell>
        <mxCell id="Yxs3lL2GmkJkZCIq6K22-73" value="+ value" style="text;strokeColor=none;fillColor=none;align=left;verticalAlign=top;spacingLeft=4;spacingRight=4;overflow=hidden;rotatable=0;points=[[0,0.5],[1,0.5]];portConstraint=eastwest;whiteSpace=wrap;html=1;" vertex="1" parent="Yxs3lL2GmkJkZCIq6K22-72">
          <mxGeometry y="26" width="196" height="26" as="geometry" />
        </mxCell>
        <mxCell id="Yxs3lL2GmkJkZCIq6K22-74" value="" style="line;strokeWidth=1;fillColor=none;align=left;verticalAlign=middle;spacingTop=-1;spacingLeft=3;spacingRight=3;rotatable=0;labelPosition=right;points=[];portConstraint=eastwest;strokeColor=inherit;" vertex="1" parent="Yxs3lL2GmkJkZCIq6K22-72">
          <mxGeometry y="52" width="196" height="8" as="geometry" />
        </mxCell>
        <mxCell id="Yxs3lL2GmkJkZCIq6K22-75" value="+ validate_tag(self,tag)&amp;nbsp;" style="text;strokeColor=none;fillColor=none;align=left;verticalAlign=top;spacingLeft=4;spacingRight=4;overflow=hidden;rotatable=0;points=[[0,0.5],[1,0.5]];portConstraint=eastwest;whiteSpace=wrap;html=1;" vertex="1" parent="Yxs3lL2GmkJkZCIq6K22-72">
          <mxGeometry y="60" width="196" height="26" as="geometry" />
        </mxCell>
        <mxCell id="Yxs3lL2GmkJkZCIq6K22-52" value="Field" style="swimlane;fontStyle=1;align=center;verticalAlign=top;childLayout=stackLayout;horizontal=1;startSize=26;horizontalStack=0;resizeParent=1;resizeParentMax=0;resizeLast=0;collapsible=1;marginBottom=0;whiteSpace=wrap;html=1;" vertex="1" parent="WIyWlLk6GJQsqaUBKTNV-1">
          <mxGeometry x="783" y="920.5" width="160" height="86" as="geometry" />
        </mxCell>
        <mxCell id="Yxs3lL2GmkJkZCIq6K22-53" value="- value" style="text;strokeColor=none;fillColor=none;align=left;verticalAlign=top;spacingLeft=4;spacingRight=4;overflow=hidden;rotatable=0;points=[[0,0.5],[1,0.5]];portConstraint=eastwest;whiteSpace=wrap;html=1;" vertex="1" parent="Yxs3lL2GmkJkZCIq6K22-52">
          <mxGeometry y="26" width="160" height="26" as="geometry" />
        </mxCell>
        <mxCell id="Yxs3lL2GmkJkZCIq6K22-54" value="" style="line;strokeWidth=1;fillColor=none;align=left;verticalAlign=middle;spacingTop=-1;spacingLeft=3;spacingRight=3;rotatable=0;labelPosition=right;points=[];portConstraint=eastwest;strokeColor=inherit;" vertex="1" parent="Yxs3lL2GmkJkZCIq6K22-52">
          <mxGeometry y="52" width="160" height="8" as="geometry" />
        </mxCell>
        <mxCell id="Yxs3lL2GmkJkZCIq6K22-55" value="+ value(self)" style="text;strokeColor=none;fillColor=none;align=left;verticalAlign=top;spacingLeft=4;spacingRight=4;overflow=hidden;rotatable=0;points=[[0,0.5],[1,0.5]];portConstraint=eastwest;whiteSpace=wrap;html=1;" vertex="1" parent="Yxs3lL2GmkJkZCIq6K22-52">
          <mxGeometry y="60" width="160" height="26" as="geometry" />
        </mxCell>
        <mxCell id="Yxs3lL2GmkJkZCIq6K22-76" value="" style="endArrow=block;endSize=16;endFill=0;html=1;rounded=0;entryX=-0.014;entryY=-0.008;entryDx=0;entryDy=0;entryPerimeter=0;" edge="1" parent="WIyWlLk6GJQsqaUBKTNV-1">
          <mxGeometry x="0.75" y="-40" width="160" relative="1" as="geometry">
            <mxPoint x="693" y="945.5" as="sourcePoint" />
            <mxPoint x="783" y="946.08" as="targetPoint" />
            <Array as="points" />
            <mxPoint as="offset" />
          </mxGeometry>
        </mxCell>
        <mxCell id="Yxs3lL2GmkJkZCIq6K22-80" style="edgeStyle=orthogonalEdgeStyle;orthogonalLoop=1;jettySize=auto;html=1;endArrow=diamondThin;endFill=0;strokeWidth=1;jumpSize=0;rounded=0;endSize=24;entryX=1;entryY=0.5;entryDx=0;entryDy=0;exitX=0;exitY=0.5;exitDx=0;exitDy=0;" edge="1" parent="WIyWlLk6GJQsqaUBKTNV-1">
          <mxGeometry relative="1" as="geometry">
            <Array as="points">
              <mxPoint x="-80" y="170.05999999999995" />
            </Array>
            <mxPoint x="-80" y="199.05999999999995" as="sourcePoint" />
            <mxPoint x="-260" y="170.05999999999995" as="targetPoint" />
          </mxGeometry>
        </mxCell>
        <mxCell id="Yxs3lL2GmkJkZCIq6K22-81" style="edgeStyle=orthogonalEdgeStyle;orthogonalLoop=1;jettySize=auto;html=1;endArrow=diamondThin;endFill=0;strokeWidth=1;jumpSize=0;rounded=0;endSize=24;entryX=1;entryY=0.5;entryDx=0;entryDy=0;exitX=0;exitY=0.5;exitDx=0;exitDy=0;" edge="1" parent="WIyWlLk6GJQsqaUBKTNV-1">
          <mxGeometry relative="1" as="geometry">
            <Array as="points">
              <mxPoint x="-80" y="890" />
            </Array>
            <mxPoint x="-80" y="919" as="sourcePoint" />
            <mxPoint x="-260" y="890" as="targetPoint" />
          </mxGeometry>
        </mxCell>
        <mxCell id="F4SfmG8yWQRCbflpEff_-26" value="Field" style="swimlane;fontStyle=1;align=center;verticalAlign=top;childLayout=stackLayout;horizontal=1;startSize=26;horizontalStack=0;resizeParent=1;resizeParentMax=0;resizeLast=0;collapsible=1;marginBottom=0;whiteSpace=wrap;html=1;" vertex="1" parent="WIyWlLk6GJQsqaUBKTNV-1">
          <mxGeometry x="827" y="298" width="160" height="86" as="geometry">
            <mxRectangle x="-20" y="-10" width="70" height="30" as="alternateBounds" />
          </mxGeometry>
        </mxCell>
        <mxCell id="F4SfmG8yWQRCbflpEff_-27" value="- value" style="text;strokeColor=none;fillColor=none;align=left;verticalAlign=top;spacingLeft=4;spacingRight=4;overflow=hidden;rotatable=0;points=[[0,0.5],[1,0.5]];portConstraint=eastwest;whiteSpace=wrap;html=1;" vertex="1" parent="F4SfmG8yWQRCbflpEff_-26">
          <mxGeometry y="26" width="160" height="26" as="geometry" />
        </mxCell>
        <mxCell id="F4SfmG8yWQRCbflpEff_-28" value="" style="line;strokeWidth=1;fillColor=none;align=left;verticalAlign=middle;spacingTop=-1;spacingLeft=3;spacingRight=3;rotatable=0;labelPosition=right;points=[];portConstraint=eastwest;strokeColor=inherit;" vertex="1" parent="F4SfmG8yWQRCbflpEff_-26">
          <mxGeometry y="52" width="160" height="8" as="geometry" />
        </mxCell>
        <mxCell id="F4SfmG8yWQRCbflpEff_-29" value="+ value(self)" style="text;strokeColor=none;fillColor=none;align=left;verticalAlign=top;spacingLeft=4;spacingRight=4;overflow=hidden;rotatable=0;points=[[0,0.5],[1,0.5]];portConstraint=eastwest;whiteSpace=wrap;html=1;" vertex="1" parent="F4SfmG8yWQRCbflpEff_-26">
          <mxGeometry y="60" width="160" height="26" as="geometry" />
        </mxCell>
        <mxCell id="C3Xhy8WWj_SlJO0l9cAw-0" value="UserDict" style="swimlane;fontStyle=0;childLayout=stackLayout;horizontal=1;startSize=26;fillColor=none;horizontalStack=0;resizeParent=1;resizeParentMax=0;resizeLast=0;collapsible=1;marginBottom=0;whiteSpace=wrap;html=1;" vertex="1" parent="WIyWlLk6GJQsqaUBKTNV-1">
          <mxGeometry x="-450" y="730" width="140" height="52" as="geometry" />
        </mxCell>
        <mxCell id="C3Xhy8WWj_SlJO0l9cAw-1" value="+ data" style="text;strokeColor=none;fillColor=none;align=left;verticalAlign=top;spacingLeft=4;spacingRight=4;overflow=hidden;rotatable=0;points=[[0,0.5],[1,0.5]];portConstraint=eastwest;whiteSpace=wrap;html=1;" vertex="1" parent="C3Xhy8WWj_SlJO0l9cAw-0">
          <mxGeometry y="26" width="140" height="26" as="geometry" />
        </mxCell>
        <mxCell id="C3Xhy8WWj_SlJO0l9cAw-2" value="UserDict" style="swimlane;fontStyle=0;childLayout=stackLayout;horizontal=1;startSize=26;fillColor=none;horizontalStack=0;resizeParent=1;resizeParentMax=0;resizeLast=0;collapsible=1;marginBottom=0;whiteSpace=wrap;html=1;" vertex="1" parent="WIyWlLk6GJQsqaUBKTNV-1">
          <mxGeometry x="-60" y="1169" width="140" height="52" as="geometry" />
        </mxCell>
        <mxCell id="C3Xhy8WWj_SlJO0l9cAw-3" value="+ data" style="text;strokeColor=none;fillColor=none;align=left;verticalAlign=top;spacingLeft=4;spacingRight=4;overflow=hidden;rotatable=0;points=[[0,0.5],[1,0.5]];portConstraint=eastwest;whiteSpace=wrap;html=1;" vertex="1" parent="C3Xhy8WWj_SlJO0l9cAw-2">
          <mxGeometry y="26" width="140" height="26" as="geometry" />
        </mxCell>
        <mxCell id="C3Xhy8WWj_SlJO0l9cAw-6" value="" style="endArrow=block;endSize=16;endFill=0;html=1;rounded=0;entryX=0;entryY=0.404;entryDx=0;entryDy=0;entryPerimeter=0;exitX=1.009;exitY=0.926;exitDx=0;exitDy=0;exitPerimeter=0;" edge="1" parent="WIyWlLk6GJQsqaUBKTNV-1" source="4WgkDRP1L0WlLXASTlf2-1" target="C3Xhy8WWj_SlJO0l9cAw-2">
          <mxGeometry x="0.75" y="-40" width="160" relative="1" as="geometry">
            <mxPoint x="-260" y="1194.37" as="sourcePoint" />
            <mxPoint x="-170" y="1194.95" as="targetPoint" />
            <Array as="points" />
            <mxPoint as="offset" />
          </mxGeometry>
        </mxCell>
        <mxCell id="C3Xhy8WWj_SlJO0l9cAw-10" value="" style="endArrow=block;endSize=16;endFill=0;html=1;rounded=0;entryX=0.422;entryY=1.186;entryDx=0;entryDy=0;entryPerimeter=0;exitX=1;exitY=0.5;exitDx=0;exitDy=0;" edge="1" parent="WIyWlLk6GJQsqaUBKTNV-1" source="C3Xhy8WWj_SlJO0l9cAw-2" target="tZ3S3SGwoQVy9rD-pLHr-7">
          <mxGeometry x="0.75" y="-40" width="160" relative="1" as="geometry">
            <mxPoint x="120" y="1220" as="sourcePoint" />
            <mxPoint x="310" y="1820" as="targetPoint" />
            <Array as="points">
              <mxPoint x="160" y="1195" />
              <mxPoint x="160" y="1760" />
              <mxPoint x="-763" y="1760" />
            </Array>
            <mxPoint as="offset" />
          </mxGeometry>
        </mxCell>
        <mxCell id="C3Xhy8WWj_SlJO0l9cAw-12" value="" style="endArrow=block;endSize=16;endFill=0;html=1;rounded=0;entryX=-0.014;entryY=-0.008;entryDx=0;entryDy=0;entryPerimeter=0;exitX=1.011;exitY=0.087;exitDx=0;exitDy=0;exitPerimeter=0;" edge="1" parent="WIyWlLk6GJQsqaUBKTNV-1" source="C3Xhy8WWj_SlJO0l9cAw-1">
          <mxGeometry x="0.75" y="-40" width="160" relative="1" as="geometry">
            <mxPoint x="-90" y="760" as="sourcePoint" />
            <mxPoint x="-760" y="790" as="targetPoint" />
            <Array as="points">
              <mxPoint x="1020" y="760" />
              <mxPoint x="1020" y="440" />
              <mxPoint x="1020" y="130" />
              <mxPoint x="-760" y="130" />
            </Array>
            <mxPoint as="offset" />
          </mxGeometry>
        </mxCell>
        <mxCell id="C3Xhy8WWj_SlJO0l9cAw-13" value="" style="endArrow=block;endSize=16;endFill=0;html=1;rounded=0;" edge="1" parent="WIyWlLk6GJQsqaUBKTNV-1">
          <mxGeometry x="0.75" y="-40" width="160" relative="1" as="geometry">
            <mxPoint x="-380" y="690" as="sourcePoint" />
            <mxPoint x="-380.48" y="730" as="targetPoint" />
            <Array as="points" />
            <mxPoint as="offset" />
          </mxGeometry>
        </mxCell>
      </root>
    </mxGraphModel>
  </diagram>
</mxfile>
